<svg width="50" height="50" viewBox="0 0 50 50" fill="none" xmlns="http://www.w3.org/2000/svg">
<rect width="50" height="50" rx="10" fill="#F0F3F8"/>
<path d="M17.2929 17.2929C17.4804 17.1054 17.7348 17 18 17H22C22.5523 17 23 16.5523 23 16C23 15.4477 22.5523 15 22 15H18C17.2044 15 16.4413 15.3161 15.8787 15.8787C15.3161 16.4413 15 17.2044 15 18V32C15 32.7957 15.3161 33.5587 15.8787 34.1213C16.4413 34.6839 17.2043 35 18 35H22C22.5523 35 23 34.5523 23 34C23 33.4477 22.5523 33 22 33H18C17.7348 33 17.4804 32.8946 17.2929 32.7071C17.1054 32.5196 17 32.2652 17 32V18C17 17.7348 17.1054 17.4804 17.2929 17.2929Z" fill="#262735"/>
<path d="M28.2929 19.2929C28.6834 18.9024 29.3166 18.9024 29.7071 19.2929L35 25C35 25.016 34.9996 25.032 34.9989 25.048C34.9874 25.2877 34.8902 25.524 34.7071 25.7071L29.7071 30.7071C29.3166 31.0976 28.6834 31.0976 28.2929 30.7071C27.9024 30.3166 27.9024 29.6834 28.2929 29.2929L31.5858 26H22C21.4477 26 21 25.5523 21 25C21 24.4477 21.4477 24 22 24H31.5858L28.2929 20.7071C27.9024 20.3166 27.9024 19.6834 28.2929 19.2929Z" fill="#262735"/>
<path d="M29.7071 19.2929L35 24.9908C34.9976 24.7379 34.9 24.4858 34.7071 24.2929L29.7071 19.2929Z" fill="#262735"/>
</svg>
