<svg width="20" height="20" viewBox="0 0 20 20" fill="none" xmlns="http://www.w3.org/2000/svg">
<circle cx="10" cy="10" r="10" fill="#F0F3F8"/>
<path d="M13.2943 7.29479C13.457 7.13207 13.457 6.86825 13.2943 6.70553C13.1316 6.54282 12.8678 6.54282 12.705 6.70553L9.99968 9.41091L7.2943 6.70553C7.13158 6.54282 6.86777 6.54282 6.70505 6.70553C6.54233 6.86825 6.54233 7.13207 6.70505 7.29479L9.41042 10.0002L6.70505 12.7055C6.54233 12.8683 6.54233 13.1321 6.70505 13.2948C6.86777 13.4575 7.13158 13.4575 7.2943 13.2948L9.99968 10.5894L12.705 13.2948C12.8678 13.4575 13.1316 13.4575 13.2943 13.2948C13.457 13.1321 13.457 12.8683 13.2943 12.7055L10.5889 10.0002L13.2943 7.29479Z" fill="#91A2B2"/>
</svg>
